<?xml version="1.0" encoding="iso-8859-1"?>
<!-- Generator: Adobe Illustrator 19.0.0, SVG Export Plug-In . SVG Version: 6.00 Build 0)  -->
<svg version="1.1" id="Capa_1" xmlns="http://www.w3.org/2000/svg" xmlns:xlink="http://www.w3.org/1999/xlink" x="0px" y="0px"
	 viewBox="0 0 512 512" style="enable-background:new 0 0 512 512;" xml:space="preserve">
<g>
	<path style="fill:#00CC76;" d="M443.069,221.539h-59.077c-8.157,0-14.769,6.613-14.769,14.769v137.846
		c0,8.157,6.613,14.769,14.769,14.769h59.077c8.157,0,14.769-6.613,14.769-14.769V236.308
		C457.839,228.152,451.227,221.539,443.069,221.539z"/>
	<path style="fill:#00CC76;" d="M128.008,221.539H68.931c-8.157,0-14.769,6.613-14.769,14.769v137.846
		c0,8.157,6.613,14.769,14.769,14.769h59.077c8.157,0,14.769-6.613,14.769-14.769V236.308
		C142.777,228.152,136.165,221.539,128.008,221.539z"/>
	<path style="fill:#00CC76;" d="M285.539,221.539h-59.077c-8.157,0-14.769,6.613-14.769,14.769v137.846
		c0,8.157,6.613,14.769,14.769,14.769h59.077c8.157,0,14.769-6.613,14.769-14.769V236.308
		C300.308,228.152,293.695,221.539,285.539,221.539z"/>
</g>
<g>
	<path style="fill:#00AA63;" d="M285.539,221.539H256v167.385h29.538c8.157,0,14.769-6.613,14.769-14.769V236.308
		C300.308,228.152,293.695,221.539,285.539,221.539z"/>
	<path style="fill:#00AA63;" d="M443.069,221.539h-29.538v167.385h29.538c8.157,0,14.769-6.613,14.769-14.769V236.308
		C457.839,228.152,451.227,221.539,443.069,221.539z"/>
	<path style="fill:#00AA63;" d="M128.008,221.539H98.47v167.385h29.538c8.157,0,14.769-6.613,14.769-14.769V236.308
		C142.777,228.152,136.165,221.539,128.008,221.539z"/>
</g>
<path style="fill:#FEDB41;" d="M503.943,124.691L262.712,1.614c-4.216-2.152-9.208-2.152-13.424,0L8.057,124.691
	C3.113,127.215,0,132.296,0,137.847v98.462c0,8.157,6.613,14.769,14.769,14.769h482.462c8.157,0,14.769-6.613,14.769-14.769v-98.462
	C512,132.296,508.888,127.215,503.943,124.691z"/>
<path style="fill:#EEBF00;" d="M497.231,251.077c8.157,0,14.769-6.613,14.769-14.769v-98.462c0-5.551-3.112-10.633-8.057-13.155
	L262.712,1.614C260.604,0.538,258.302,0,256,0v251.077H497.231z"/>
<path style="fill:#FEDB41;" d="M472.616,359.385H39.385c-8.157,0-14.769,6.613-14.769,14.769v59.077
	c0,8.157,6.613,14.769,14.769,14.769h433.231c8.157,0,14.769-6.613,14.769-14.769v-59.077
	C487.385,365.998,480.772,359.385,472.616,359.385z"/>
<path style="fill:#EEBF00;" d="M472.616,359.385H256V448h216.615c8.157,0,14.769-6.613,14.769-14.769v-59.077
	C487.385,365.998,480.772,359.385,472.616,359.385z"/>
<path style="fill:#E27726;" d="M302.769,104c0-17.91-14.245-32.548-32-33.199v-9.262c0-8.157-6.613-14.769-14.769-14.769
	s-14.769,6.613-14.769,14.769v9.231H224c-8.157,0-14.769,6.613-14.769,14.769v40v40c0,8.157,6.613,14.769,14.769,14.769h17.231
	v9.231c0,8.157,6.613,14.769,14.769,14.769s14.769-6.613,14.769-14.769v-9.262c17.755-0.651,32-15.289,32-33.199V144
	c0-6.826-2.072-13.177-5.615-18.462c3.545-5.284,5.615-11.635,5.615-18.462V104z M238.769,100.308h30.769
	c2.036,0,3.692,1.657,3.692,3.692v3.077c0,2.035-1.656,3.692-3.692,3.692h-30.769V100.308z M273.231,147.077
	c0,2.035-1.656,3.692-3.692,3.692h-30.769v-10.462h30.769c2.036,0,3.692,1.657,3.692,3.692V147.077z"/>
<path style="fill:#9B5E34;" d="M269.539,100.308c2.036,0,3.692,1.657,3.692,3.692v3.077c0,2.035-1.656,3.692-3.692,3.692H256v29.538
	h13.538c2.036,0,3.692,1.657,3.692,3.692v3.077c0,2.035-1.656,3.692-3.692,3.692H256v53.538c8.157,0,14.769-6.613,14.769-14.769
	v-9.262c17.755-0.651,32-15.289,32-33.199V144c0-6.826-2.072-13.177-5.615-18.462c3.545-5.284,5.615-11.635,5.615-18.462V104
	c0-17.91-14.245-32.548-32-33.199v-9.262c0-8.157-6.613-14.769-14.769-14.769v53.538H269.539z"/>
<path style="fill:#FEA832;" d="M497.231,418.462H14.769C6.613,418.462,0,425.075,0,433.231v64C0,505.388,6.613,512,14.769,512
	h482.462c8.157,0,14.769-6.613,14.769-14.769v-64C512,425.075,505.388,418.462,497.231,418.462z"/>
<path style="fill:#EA8D1F;" d="M497.231,418.462H256V512h241.231c8.157,0,14.769-6.613,14.769-14.769v-64
	C512,425.075,505.388,418.462,497.231,418.462z"/>
<g>
</g>
<g>
</g>
<g>
</g>
<g>
</g>
<g>
</g>
<g>
</g>
<g>
</g>
<g>
</g>
<g>
</g>
<g>
</g>
<g>
</g>
<g>
</g>
<g>
</g>
<g>
</g>
<g>
</g>
</svg>
