<?xml version="1.0" encoding="iso-8859-1"?>
<!-- Generator: Adobe Illustrator 19.0.0, SVG Export Plug-In . SVG Version: 6.00 Build 0)  -->
<svg version="1.1" id="Capa_1" xmlns="http://www.w3.org/2000/svg" xmlns:xlink="http://www.w3.org/1999/xlink" x="0px" y="0px"
	 viewBox="0 0 494.825 494.825" style="enable-background:new 0 0 494.825 494.825;" xml:space="preserve">
<path style="fill:#CACACA;" d="M451.274,11.691c-20.558,0-37.221,16.663-37.221,37.221v74.861h80.772V48.912
	C494.84,28.928,480.861,11.691,451.274,11.691z"/>
<path style="fill:#F3F3F3;" d="M79.127,11.753c-22.388,0-40.401,18.013-40.401,40.401v430.98h334.848
	c22.388,0,40.401-18.184,40.401-40.401l0.078-390.656c0-22.078,17.734-39.952,39.719-40.324
	C453.772,11.753,79.127,11.753,79.127,11.753z"/>
<path style="fill:#CACACA;" d="M373.667,483.072c-22.311,0-40.386-18.075-40.386-40.386v-42.543H0v42.589
	c0,22.218,18.013,40.401,40.401,40.401h333.343v-0.078C373.713,483.056,373.698,483.072,373.667,483.072z"/>
<circle style="fill:#FFDB6F;" cx="332.086" cy="302.491" r="63.938"/>
<path style="fill:#ED6262;" d="M332.102,251.632c-28.005,0-50.781,22.776-50.781,50.781s22.776,50.781,50.781,50.781
	s50.781-22.776,50.781-50.781C382.867,274.409,360.091,251.632,332.102,251.632z M332.102,338.828
	c-20.077,0-36.414-16.337-36.414-36.414c0-20.077,16.322-36.414,36.414-36.414c20.092,0,36.414,16.337,36.414,36.414
	C368.5,322.49,352.178,338.828,332.102,338.828z"/>
<g>
	<path style="fill:#CACACA;" d="M345.585,73.984H102.757c-8.58,0-15.515,6.951-15.515,15.515s6.935,15.515,15.515,15.515h242.828
		c8.58,0,15.515-6.951,15.515-15.515C361.1,80.919,354.164,73.984,345.585,73.984z"/>
	<path style="fill:#CACACA;" d="M361.1,163.289c0-8.564-6.935-15.515-15.515-15.515H102.757c-8.58,0-15.515,6.951-15.515,15.515
		s6.935,15.515,15.515,15.515h242.828C354.164,178.804,361.1,171.869,361.1,163.289z"/>
	<path style="fill:#CACACA;" d="M229.221,237.095c0-8.564-6.935-15.515-15.515-15.515H102.757c-8.58,0-15.515,6.951-15.515,15.515
		c0,8.564,6.935,15.515,15.515,15.515h110.949C222.286,252.61,229.221,245.659,229.221,237.095z"/>
	<path style="fill:#CACACA;" d="M229.221,310.9c0-8.564-6.935-15.515-15.515-15.515H102.757c-8.58,0-15.515,6.951-15.515,15.515
		s6.935,15.515,15.515,15.515h110.949C222.286,326.415,229.221,319.465,229.221,310.9z"/>
</g>
<g>
	<path style="fill:#D3D3D3;" d="M157.665,426.116H46.716c-8.58,0-15.515,6.951-15.515,15.515s6.935,15.515,15.515,15.515h110.949
		c8.58,0,15.515-6.951,15.515-15.515S166.245,426.116,157.665,426.116z"/>
	<path style="fill:#D3D3D3;" d="M443.92,38.485c-8.564,0-15.515,6.935-15.515,15.515v39.967c0,8.58,6.951,15.515,15.515,15.515
		c8.564,0,15.515-6.935,15.515-15.515V54C459.435,45.421,452.499,38.485,443.92,38.485z"/>
</g>
<g>
</g>
<g>
</g>
<g>
</g>
<g>
</g>
<g>
</g>
<g>
</g>
<g>
</g>
<g>
</g>
<g>
</g>
<g>
</g>
<g>
</g>
<g>
</g>
<g>
</g>
<g>
</g>
<g>
</g>
</svg>
