<?xml version="1.0" encoding="iso-8859-1"?>
<!-- Generator: Adobe Illustrator 19.0.0, SVG Export Plug-In . SVG Version: 6.00 Build 0)  -->
<svg version="1.1" id="Capa_1" xmlns="http://www.w3.org/2000/svg" xmlns:xlink="http://www.w3.org/1999/xlink" x="0px" y="0px"
	 viewBox="0 0 480 480" style="enable-background:new 0 0 480 480;" xml:space="preserve">
<g>
	<path style="fill:#D3E6EA;" d="M272,272h208v208H272V272z"/>
	<path style="fill:#D3E6EA;" d="M0,272h208v208H0V272z"/>
	<path style="fill:#D3E6EA;" d="M272,0h208v208H272V0z"/>
	<path style="fill:#D3E6EA;" d="M0,0h208v208H0V0z"/>
</g>
<path style="fill:#FCD821;" d="M121.412,98.795c14.828-9.616,19.053-29.432,9.437-44.26s-29.432-19.053-44.26-9.437
	s-19.053,29.432-9.437,44.26c2.447,3.774,5.663,6.989,9.437,9.437C63.576,106.323,48.008,127.788,48,152v56h112v-56
	C159.992,127.788,144.424,106.323,121.412,98.795L121.412,98.795z"/>
<path style="fill:#344496;" d="M393.412,98.795c14.828-9.616,19.053-29.432,9.437-44.26c-9.616-14.828-29.432-19.053-44.26-9.437
	s-19.053,29.432-9.437,44.26c2.447,3.774,5.663,6.989,9.437,9.437C335.576,106.323,320.008,127.788,320,152v56h112v-56
	C431.992,127.788,416.424,106.323,393.412,98.795L393.412,98.795z"/>
<path style="fill:#EC322C;" d="M393.412,386.795c14.828-9.616,19.053-29.432,9.437-44.26c-9.616-14.828-29.432-19.053-44.26-9.437
	s-19.053,29.432-9.437,44.26c2.447,3.774,5.663,6.989,9.437,9.437C335.576,394.323,320.008,415.788,320,440v40h112v-40
	C431.992,415.788,416.424,394.323,393.412,386.795L393.412,386.795z"/>
<path style="fill:#344496;" d="M120,120H88v16h8v48h16v-48h8V120z"/>
<path style="fill:#EC322C;" d="M344,132l32,48l32-48H344z"/>
<path style="fill:#4BAD32;" d="M121.412,386.795c14.828-9.616,19.053-29.432,9.437-44.26c-9.616-14.828-29.432-19.053-44.26-9.437
	c-14.828,9.616-19.053,29.432-9.437,44.26c2.447,3.774,5.663,6.989,9.437,9.437C63.576,394.323,48.008,415.788,48,440v40h112v-40
	C159.992,415.788,144.424,394.323,121.412,386.795L121.412,386.795z"/>
<circle style="fill:#344496;" cx="376" cy="432" r="24"/>
<path style="fill:#EC322C;" d="M80,416h48v48H80V416z"/>
<g>
</g>
<g>
</g>
<g>
</g>
<g>
</g>
<g>
</g>
<g>
</g>
<g>
</g>
<g>
</g>
<g>
</g>
<g>
</g>
<g>
</g>
<g>
</g>
<g>
</g>
<g>
</g>
<g>
</g>
</svg>
