<?xml version="1.0" encoding="iso-8859-1"?>
<!-- Generator: Adobe Illustrator 19.0.0, SVG Export Plug-In . SVG Version: 6.00 Build 0)  -->
<svg version="1.1" id="Capa_1" xmlns="http://www.w3.org/2000/svg" xmlns:xlink="http://www.w3.org/1999/xlink" x="0px" y="0px"
	 viewBox="0 0 512 512" style="enable-background:new 0 0 512 512;" xml:space="preserve">
<polygon style="fill:#E1E0E2;" points="277.709,64.156 256,42.447 234.289,64.156 213.067,42.933 256,0 298.932,42.933 "/>
<polygon style="fill:#BEBDC2;" points="277.709,64.156 256,42.447 256,0 298.932,42.933 "/>
<g>
	<polygon style="fill:#E1E0E2;" points="42.933,298.933 0.001,256 42.933,213.068 64.156,234.291 42.446,256 64.156,277.71 	"/>
	<polygon style="fill:#E1E0E2;" points="256,512 213.067,469.068 234.29,447.845 256,469.553 277.709,447.845 298.932,469.068 	"/>
</g>
<g>
	<polygon style="fill:#BEBDC2;" points="256,512 256,469.553 277.709,447.845 298.932,469.068 	"/>
	<polygon style="fill:#BEBDC2;" points="469.066,298.933 447.844,277.71 469.554,256 447.844,234.291 469.066,213.068 512,256 	"/>
</g>
<path style="fill:#4BBAED;" d="M130.052,129.018c-38.762,38.762-38.762,101.833,0,140.594l9.82,9.82l140.594-140.594l-9.82-9.82
	C231.884,90.256,168.814,90.256,130.052,129.018z"/>
<path style="fill:#FD5D73;" d="M129.518,381.281c38.762,38.762,101.833,38.762,140.594,0l9.82-9.82L139.338,230.867l-9.82,9.82
	C90.756,279.449,90.756,342.519,129.518,381.281z"/>
<path style="fill:#FC0023;" d="M129.518,381.281c0.156,0.156,0.316,0.307,0.473,0.462l80.111-80.111l-70.765-70.764l-9.82,9.82
	C90.756,279.449,90.756,342.519,129.518,381.281z"/>
<path style="fill:#FFD699;" d="M52.583,458.215c26.996,26.996,70.92,26.996,97.915,0c26.996-26.996,26.995-70.92,0-97.915
	c-26.995-26.995-70.919-26.995-97.915,0C25.588,387.296,25.588,431.22,52.583,458.215z"/>
<path style="fill:#FFC266;" d="M150.498,360.3c-26.995-26.995-70.919-26.995-97.915,0c-26.995,26.996-26.996,70.919,0,97.915
	L150.498,360.3z"/>
<path style="fill:#4BBAED;" d="M381.78,381.815c38.762-38.762,38.762-101.833,0-140.594l-9.82-9.82L231.367,371.995l9.82,9.82
	C279.949,420.576,343.018,420.576,381.78,381.815z"/>
<path style="fill:#0290D1;" d="M381.78,381.815c0.156-0.156,0.307-0.316,0.462-0.474l-80.111-80.111l-70.764,70.764l9.82,9.82
	C279.949,420.576,343.018,420.576,381.78,381.815z"/>
<path style="fill:#FFD699;" d="M458.715,458.749c26.996-26.996,26.996-70.92,0-97.915c-26.996-26.996-70.92-26.996-97.915,0
	c-26.995,26.996-26.995,70.919,0,97.915C387.795,485.745,431.72,485.745,458.715,458.749z"/>
<path style="fill:#FFC266;" d="M360.8,360.834c-26.995,26.996-26.995,70.919,0,97.915c26.996,26.996,70.919,26.996,97.915,0
	L360.8,360.834z"/>
<path style="fill:#FD5D73;" d="M382.315,129.553c-38.762-38.762-101.833-38.762-140.594,0l-9.82,9.82l140.593,140.594l9.82-9.82
	C421.076,231.384,421.076,168.315,382.315,129.553z"/>
<path style="fill:#FC0023;" d="M382.315,129.553c-0.156-0.156-0.316-0.307-0.474-0.462l-80.111,80.111l70.765,70.764l9.82-9.82
	C421.076,231.384,421.076,168.315,382.315,129.553z"/>
<path style="fill:#FFD699;" d="M459.249,52.618c-26.996-26.996-70.92-26.996-97.915,0c-26.996,26.996-26.996,70.92,0,97.915
	c26.995,26.996,70.919,26.995,97.915,0C486.243,123.538,486.244,79.613,459.249,52.618z"/>
<path style="fill:#FFC266;" d="M361.334,150.533c26.995,26.996,70.919,26.995,97.915,0c26.996-26.996,26.996-70.919,0-97.915
	L361.334,150.533z"/>
<path style="fill:#0290D1;" d="M130.052,129.018c-0.156,0.156-0.307,0.316-0.462,0.474l80.111,80.111l70.764-70.765l-9.82-9.82
	C231.884,90.256,168.814,90.256,130.052,129.018z"/>
<path style="fill:#FFD699;" d="M53.117,52.084c-26.996,26.996-26.996,70.92,0,97.915c26.996,26.996,70.92,26.995,97.915,0
	s26.995-70.919,0-97.915C124.037,25.089,80.113,25.089,53.117,52.084z"/>
<path style="fill:#FFC266;" d="M151.032,149.999c26.995-26.995,26.995-70.919,0-97.915s-70.919-26.996-97.915,0L151.032,149.999z"/>
<g>
</g>
<g>
</g>
<g>
</g>
<g>
</g>
<g>
</g>
<g>
</g>
<g>
</g>
<g>
</g>
<g>
</g>
<g>
</g>
<g>
</g>
<g>
</g>
<g>
</g>
<g>
</g>
<g>
</g>
</svg>
