<?xml version="1.0" encoding="iso-8859-1"?>
<!-- Generator: Adobe Illustrator 19.0.0, SVG Export Plug-In . SVG Version: 6.00 Build 0)  -->
<svg version="1.1" id="Capa_1" xmlns="http://www.w3.org/2000/svg" xmlns:xlink="http://www.w3.org/1999/xlink" x="0px" y="0px"
	 viewBox="0 0 512 512" style="enable-background:new 0 0 512 512;" xml:space="preserve">
<g>
	<g>
		<path style="fill:#3F5C6C;" d="M432.552,52.966v344.276c0.003,9.366-3.717,18.348-10.339,24.971s-15.605,10.342-24.971,10.339
			H61.793c-9.366,0.003-18.348-3.717-24.971-10.339s-10.342-15.605-10.339-24.971V52.966H432.552z"/>
		<path style="fill:#BDC3C7;" d="M432.552,35.31v35.31H26.483V35.31c-0.003-9.366,3.717-18.349,10.339-24.971S52.427-0.003,61.793,0
			h335.448c9.366-0.003,18.349,3.717,24.971,10.339C428.835,16.962,432.554,25.945,432.552,35.31z"/>
		<path style="fill:#E64C3C;" d="M70.621,44.138c-1.155-0.014-2.296-0.254-3.358-0.707c-1.079-0.427-2.066-1.056-2.91-1.853
			c-3.414-3.481-3.414-9.054,0-12.534c0.857-0.78,1.841-1.409,2.909-1.858c3.289-1.384,7.088-0.651,9.626,1.857
			c1.625,1.684,2.542,3.927,2.56,6.268c0.023,2.348-0.9,4.607-2.56,6.267C75.227,43.238,72.969,44.161,70.621,44.138z"/>
		<path style="fill:#F29C1F;" d="M105.931,44.138c-1.155-0.014-2.296-0.254-3.358-0.707c-1.079-0.427-2.066-1.056-2.91-1.853
			c-3.414-3.481-3.414-9.054,0-12.534c0.857-0.78,1.841-1.409,2.909-1.858c3.29-1.376,7.084-0.644,9.626,1.857
			c3.414,3.481,3.414,9.054,0,12.534C110.506,43.188,108.268,44.102,105.931,44.138z"/>
		<path style="fill:#14A085;" d="M141.241,44.138c-2.348,0.023-4.607-0.9-6.267-2.56c-1.66-1.66-2.583-3.919-2.56-6.267
			c0.016-2.341,0.933-4.585,2.56-6.268c2.536-2.508,6.333-3.242,9.621-1.858c1.07,0.449,2.056,1.077,2.915,1.858
			c3.414,3.481,3.414,9.054,0,12.534c-0.846,0.796-1.834,1.425-2.914,1.854C143.534,43.884,142.395,44.124,141.241,44.138z"/>
		<path style="fill:#95A5A5;" d="M264.828,44.138h-70.621c-4.875,0-8.828-3.952-8.828-8.828s3.952-8.828,8.828-8.828h70.621
			c4.875,0,8.828,3.952,8.828,8.828S269.703,44.138,264.828,44.138z"/>
		<path style="fill:#7F8C8D;" d="M238.345,123.586v26.483H105.931v-44.138H220.69C230.429,105.959,238.316,113.847,238.345,123.586z
			"/>
		<path style="fill:#ECF0F1;" d="M238.345,150.069v123.586c-0.029,9.739-7.916,17.626-17.655,17.655H79.448
			c-9.739-0.029-17.627-7.916-17.655-17.655V150.069H238.345z"/>
		<path style="fill:#95A5A5;" d="M105.931,105.931v44.138H61.793v-26.483c0.028-9.739,7.916-17.627,17.655-17.655H105.931z"/>
		<circle style="fill:#8697CB;" cx="150.069" cy="220.69" r="35.31"/>
		<path style="fill:#D75E72;" d="M203.034,273.655c-3.569-0.014-6.782-2.168-8.151-5.465c-1.369-3.297-0.626-7.092,1.883-9.631
			c2.113-2.019,5.064-2.905,7.94-2.383c0.586,0.081,1.154,0.259,1.681,0.526c0.542,0.177,1.05,0.447,1.5,0.797
			c2.227,1.449,3.674,3.833,3.933,6.478c0.258,2.645-0.7,5.263-2.605,7.116c-0.407,0.395-0.852,0.748-1.328,1.056
			c-0.45,0.351-0.958,0.62-1.5,0.797c-0.528,0.266-1.096,0.445-1.681,0.53C204.154,273.58,203.596,273.639,203.034,273.655z"/>
		<path style="fill:#E6E7E8;" d="M282.483,105.931h97.103c4.875,0,8.828,3.952,8.828,8.828v26.483c0,4.875-3.952,8.828-8.828,8.828
			h-97.103c-4.875,0-8.828-3.952-8.828-8.828v-26.483C273.655,109.883,277.607,105.931,282.483,105.931z"/>
	</g>
	<path style="fill:#95A5A5;" d="M319.423,311.075l-31.148-15.293c-3.401-1.683-7.498-1.005-10.174,1.685l-7.116,7.116
		c-2.69,2.677-3.369,6.773-1.685,10.174l15.293,31.147l-7.406,17.879l-32.839,11.211c-3.595,1.215-6.012,4.591-6.003,8.386v10.063
		c-0.009,3.795,2.407,7.171,6.003,8.386l32.839,11.211l7.406,17.879L269.3,462.07c-1.683,3.401-1.005,7.498,1.685,10.174
		l7.116,7.116c2.677,2.69,6.773,3.369,10.174,1.685l31.148-15.293l17.879,7.406l11.211,32.839c1.215,3.595,4.591,6.012,8.386,6.003
		h10.063c3.795,0.009,7.171-2.407,8.386-6.003l11.211-32.839l17.879-7.406l31.148,15.293c3.401,1.683,7.498,1.005,10.174-1.685
		l7.116-7.116c2.69-2.677,3.369-6.773,1.685-10.174l-15.293-31.147l7.406-17.879l32.839-11.211c3.595-1.215,6.012-4.591,6.003-8.386
		v-10.063c0.009-3.795-2.407-7.171-6.003-8.386l-32.839-11.211l-7.406-17.879l15.293-31.148c1.683-3.401,1.005-7.498-1.685-10.174
		l-7.116-7.116c-2.677-2.69-6.773-3.369-10.174-1.685l-31.147,15.293l-17.879-7.406l-11.211-32.839
		c-1.215-3.595-4.591-6.012-8.386-6.003h-10.063c-3.795-0.009-7.171,2.407-8.386,6.003l-11.211,32.839L319.423,311.075z"/>
	<g>
		<g>
			<path style="fill:#84B5CB;" d="M273.655,194.207h114.759c4.875,0,8.828-3.952,8.828-8.828c0-4.875-3.952-8.828-8.828-8.828
				H273.655c-4.875,0-8.828,3.952-8.828,8.828C264.828,190.255,268.78,194.207,273.655,194.207z"/>
			<path style="fill:#84B5CB;" d="M388.414,211.862H273.655c-4.875,0-8.828,3.952-8.828,8.828s3.952,8.828,8.828,8.828h114.759
				c4.875,0,8.828-3.952,8.828-8.828S393.289,211.862,388.414,211.862z"/>
			<path style="fill:#84B5CB;" d="M70.621,335.448h70.621c4.875,0,8.828-3.952,8.828-8.828s-3.952-8.828-8.828-8.828H70.621
				c-4.875,0-8.828,3.952-8.828,8.828S65.745,335.448,70.621,335.448z"/>
			<path style="fill:#84B5CB;" d="M203.034,353.103H70.621c-4.875,0-8.828,3.952-8.828,8.828s3.952,8.828,8.828,8.828h132.414
				c4.875,0,8.828-3.952,8.828-8.828S207.91,353.103,203.034,353.103z"/>
			<path style="fill:#84B5CB;" d="M203.034,388.414H70.621c-4.875,0-8.828,3.952-8.828,8.828c0,4.875,3.952,8.828,8.828,8.828
				h132.414c4.875,0,8.828-3.952,8.828-8.828C211.862,392.366,207.91,388.414,203.034,388.414z"/>
		</g>
		<circle style="fill:#BDC3C7;" cx="361.931" cy="388.414" r="88.276"/>
		<path style="fill:#285680;" d="M392.379,415.918l-54.757-27.505l54.602-27.421c4.34-2.199,6.083-7.494,3.898-11.841
			s-7.475-6.106-11.829-3.935l-69.123,34.714c-0.4,0.165-0.787,0.359-1.158,0.581l-0.03,0.015l-0.008,0.006
			c-3.325,1.409-5.303,4.863-4.835,8.444l0.005,0.045c0.085,1.088,0.374,2.149,0.854,3.129c0.034,0.073,0.025,0.152,0.062,0.225
			c0.092,0.182,0.237,0.314,0.339,0.487c0.288,0.524,0.63,1.016,1.021,1.469c0.644,0.703,1.4,1.296,2.236,1.754
			c0.066,0.035,0.103,0.1,0.171,0.134l70.621,35.474c4.356,2.185,9.657,0.427,11.846-3.926S396.731,418.111,392.379,415.918
			L392.379,415.918z"/>
		<g>
			<circle style="fill:#4482C3;" cx="388.414" cy="353.103" r="17.655"/>
			<circle style="fill:#4482C3;" cx="317.793" cy="388.414" r="17.655"/>
			<circle style="fill:#4482C3;" cx="388.414" cy="423.724" r="17.655"/>
		</g>
	</g>
</g>
<g>
</g>
<g>
</g>
<g>
</g>
<g>
</g>
<g>
</g>
<g>
</g>
<g>
</g>
<g>
</g>
<g>
</g>
<g>
</g>
<g>
</g>
<g>
</g>
<g>
</g>
<g>
</g>
<g>
</g>
</svg>
