<?xml version="1.0" encoding="UTF-8" ?>
<!DOCTYPE svg PUBLIC "-//W3C//DTD SVG 1.1//EN" "http://www.w3.org/Graphics/SVG/1.1/DTD/svg11.dtd">
<svg width="923pt" height="874pt" viewBox="0 0 923 874" version="1.1" xmlns="http://www.w3.org/2000/svg">
<g id="#62bb46ff">
<path fill="#62bb46" opacity="1.00" d=" M 300.09 11.99 C 336.27 3.71 373.62 -2.76 410.80 1.62 C 445.55 6.12 480.55 10.90 513.92 22.00 C 529.66 27.50 545.36 33.28 560.28 40.80 C 601.38 61.27 637.44 90.88 668.14 124.84 C 679.39 137.38 690.35 150.31 699.25 164.67 C 722.56 201.80 735.02 245.28 737.33 288.92 C 734.25 323.30 725.34 358.02 705.88 386.94 C 691.21 407.19 668.51 419.02 649.94 435.12 C 626.75 437.77 603.09 437.99 579.91 435.00 C 569.94 428.87 560.52 421.86 550.90 415.20 C 542.24 408.84 532.99 403.23 525.10 395.88 C 488.13 363.17 460.12 322.16 428.07 284.96 C 405.61 258.83 376.13 239.11 344.00 226.89 C 340.88 225.74 337.80 224.39 334.51 223.82 C 292.69 217.40 249.28 220.74 209.14 234.28 C 181.27 243.38 155.71 258.59 133.03 277.02 C 94.75 308.27 64.44 348.28 39.91 390.91 C 24.44 419.86 16.62 452.10 2.01 481.43 C -2.36 447.77 5.36 414.09 14.97 382.01 C 29.72 326.93 60.41 276.77 100.32 236.30 C 120.30 216.25 142.12 197.67 166.95 183.87 C 201.44 164.38 239.47 152.07 277.92 143.14 C 288.28 140.01 299.26 139.21 309.98 140.58 C 331.41 143.21 351.38 151.97 372.28 156.92 C 398.54 166.13 421.69 182.42 442.40 200.74 C 469.42 224.64 492.98 252.12 519.76 276.28 C 532.11 287.43 545.17 297.86 559.34 306.61 C 563.95 309.34 568.47 312.79 574.05 313.07 C 600.53 316.74 626.83 298.31 635.85 273.78 C 638.21 267.06 639.66 259.76 638.65 252.65 C 631.06 224.55 615.81 199.03 597.10 176.93 C 580.47 157.21 561.17 139.94 541.00 123.93 C 517.17 102.97 488.03 89.55 459.21 76.95 C 426.91 63.43 391.52 61.48 357.17 57.42 C 352.45 57.00 347.78 55.91 343.03 55.95 C 283.24 58.93 224.23 69.69 165.50 80.72 C 191.43 54.41 224.70 36.57 259.20 24.17 C 272.61 19.42 286.18 15.03 300.09 11.99 Z" />
</g>
<g id="#00aeefff">
<path fill="#00aeef" opacity="1.00" d=" M 730.51 73.19 C 762.07 96.80 786.66 128.86 803.99 164.09 C 825.91 208.64 837.41 257.73 842.00 306.99 C 842.38 348.88 830.10 389.58 815.67 428.50 C 814.03 433.77 810.81 438.30 807.91 442.93 C 787.46 474.37 758.39 500.01 724.95 516.91 C 694.15 532.17 664.86 550.86 632.10 561.83 C 624.92 564.38 617.42 565.86 610.22 568.36 C 593.09 573.89 575.52 578.78 559.82 587.81 C 549.49 593.70 540.24 601.73 533.85 611.83 C 526.00 622.48 521.10 635.75 522.18 649.11 C 522.79 657.98 527.08 666.44 533.91 672.15 C 542.78 680.50 550.64 692.62 563.93 693.61 C 598.56 694.11 633.60 696.81 667.88 690.38 C 681.67 687.85 695.07 683.45 707.80 677.61 C 749.14 659.51 789.40 636.67 820.75 603.70 C 825.94 598.53 830.15 592.46 835.71 587.66 C 859.46 564.96 875.23 535.59 889.30 506.29 C 894.17 496.45 898.70 486.41 901.71 475.83 C 907.80 455.67 911.24 434.55 920.57 415.49 C 923.37 451.03 923.36 487.42 913.78 522.02 C 902.55 563.64 887.77 605.13 862.60 640.52 C 854.74 651.82 845.30 661.86 836.24 672.18 C 819.40 691.28 802.28 710.43 781.86 725.83 C 773.65 732.11 764.76 737.42 755.83 742.62 C 727.02 759.24 696.26 772.62 664.15 781.45 C 630.99 790.55 596.30 794.67 561.95 791.99 C 544.50 790.88 527.47 786.36 510.80 781.33 C 478.48 771.11 446.95 754.44 425.29 727.75 C 418.04 719.21 413.03 709.14 407.15 699.68 C 396.36 680.76 391.78 658.61 393.00 636.94 C 394.85 603.48 409.50 570.86 433.34 547.30 C 443.34 537.32 455.29 529.61 467.42 522.48 C 500.53 503.45 537.62 492.53 574.92 485.25 C 596.66 480.85 618.77 478.40 640.36 473.25 C 653.22 470.08 666.14 466.36 677.69 459.71 C 688.21 453.99 698.23 447.42 708.63 441.49 C 714.09 438.33 719.88 435.74 725.03 432.07 C 740.28 421.54 751.64 406.20 759.55 389.61 C 765.54 377.07 769.31 363.65 773.55 350.46 C 780.80 326.59 786.54 302.00 787.04 276.95 C 786.75 257.80 784.52 238.70 780.93 219.90 C 771.14 168.89 751.37 120.53 730.51 73.19 Z" />
</g>
<g id="#f37321ff">
<path fill="#f37321" opacity="1.00" d=" M 218.16 282.90 C 232.84 276.02 248.73 271.44 264.97 270.58 C 270.99 270.43 276.97 269.67 283.00 269.75 C 317.51 269.90 351.62 285.71 374.04 311.95 C 380.07 318.86 384.80 326.75 389.52 334.57 C 409.09 368.51 412.42 410.93 399.76 447.87 C 385.07 490.03 366.46 530.79 353.75 573.65 C 343.87 612.81 340.26 654.26 348.49 694.06 C 352.25 711.99 358.52 729.45 367.60 745.39 C 386.38 777.39 415.02 803.03 447.73 820.24 C 476.81 835.55 509.15 844.68 541.95 846.73 C 565.27 846.71 588.35 850.51 611.61 851.49 C 627.78 852.22 644.15 851.24 659.84 847.01 C 631.89 866.94 596.73 873.50 562.99 873.49 C 541.95 873.06 520.85 872.76 499.98 869.85 C 450.54 863.34 401.70 846.50 361.49 816.50 C 347.67 806.19 335.13 794.23 323.40 781.62 C 285.34 739.21 265.07 683.21 259.27 627.08 C 257.20 589.50 268.93 553.16 279.41 517.59 C 285.92 496.09 291.42 474.27 294.88 452.07 C 297.19 433.81 294.65 414.23 284.33 398.64 C 281.51 393.78 276.39 390.99 271.58 388.46 C 257.03 381.35 239.46 381.20 224.55 387.34 C 218.86 389.38 213.19 391.67 208.17 395.10 C 191.50 406.14 180.74 423.48 169.81 439.75 C 140.80 483.55 129.94 538.46 138.42 590.17 C 144.29 626.05 157.90 659.97 167.19 694.98 C 178.41 737.10 197.27 776.61 210.76 817.97 C 179.09 790.48 146.78 761.83 126.75 724.33 C 119.63 709.86 111.78 695.76 105.07 681.08 C 94.95 659.28 86.35 636.67 80.97 613.20 C 76.90 596.11 75.28 578.57 74.57 561.05 C 72.81 526.55 72.72 491.48 80.78 457.68 C 84.85 440.38 91.37 423.67 100.21 408.26 C 112.62 386.30 121.85 361.99 139.51 343.47 C 162.93 320.05 187.93 297.18 218.16 282.90 Z" />
</g>
</svg>
