<?xml version="1.0" encoding="UTF-8" ?>
<!DOCTYPE svg PUBLIC "-//W3C//DTD SVG 1.1//EN" "http://www.w3.org/Graphics/SVG/1.1/DTD/svg11.dtd">
<svg width="876pt" height="211pt" viewBox="0 0 876 211" version="1.1" xmlns="http://www.w3.org/2000/svg">
<g id="#6d2c00ff">
<path fill="#6d2c00" opacity="1.00" d=" M 43.70 28.03 C 93.14 27.96 142.59 27.86 192.01 28.65 C 200.86 30.41 210.32 32.43 217.04 38.93 C 220.62 41.98 222.64 46.30 224.71 50.42 C 228.41 50.32 232.13 50.37 235.83 50.56 C 235.45 55.38 233.38 60.11 233.66 64.91 C 237.59 71.85 239.28 80.08 237.77 87.97 C 236.15 101.45 229.41 114.31 218.74 122.81 C 210.85 129.45 201.04 133.60 190.89 135.26 C 187.36 135.79 183.70 135.61 180.25 136.63 C 177.78 138.50 175.11 140.76 174.75 144.05 C 172.80 153.71 170.96 163.39 169.13 173.07 C 161.26 176.60 153.39 180.12 145.48 183.57 C 142.94 184.56 140.86 186.90 137.99 186.82 C 100.33 186.83 62.67 186.76 25.00 186.85 C 25.00 186.15 24.98 184.75 24.98 184.05 C 25.86 183.23 26.74 182.41 27.62 181.60 C 48.69 181.63 69.76 181.59 90.82 181.61 C 91.91 174.17 92.78 166.69 93.44 159.19 C 79.99 159.17 66.54 159.16 53.08 159.18 C 54.02 145.80 56.10 132.53 57.42 119.18 C 67.40 119.25 77.39 119.22 87.38 119.20 C 87.52 115.00 87.89 110.82 88.58 106.67 C 88.85 105.02 89.06 103.36 89.24 101.70 C 89.39 100.01 89.51 98.32 89.66 96.63 C 79.80 96.65 69.95 96.65 60.10 96.63 C 61.49 83.36 63.25 70.13 64.67 56.86 C 77.12 56.87 89.58 56.85 102.03 56.89 C 103.39 56.84 105.83 57.18 105.76 55.12 C 106.23 48.23 107.59 41.43 107.84 34.53 C 86.82 34.57 65.80 34.52 44.78 34.55 C 44.55 36.56 44.30 38.56 44.04 40.57 C 43.54 40.10 42.53 39.17 42.02 38.70 C 42.37 35.11 42.56 31.47 43.70 28.03 M 142.98 51.91 C 142.71 52.20 142.18 52.76 141.91 53.05 C 138.78 53.23 135.65 53.24 132.52 53.24 C 131.47 58.60 130.46 63.96 129.38 69.31 C 132.82 69.13 136.25 69.35 139.68 69.53 C 139.25 72.60 138.46 75.60 137.66 78.59 C 134.32 78.65 130.99 78.65 127.65 78.62 C 126.57 83.45 125.55 88.30 124.95 93.22 C 128.26 93.21 131.57 93.24 134.87 93.36 C 130.35 118.78 124.88 144.03 120.22 169.43 C 127.43 166.33 134.56 163.06 141.83 160.12 L 141.87 159.88 C 145.38 158.47 148.90 157.07 152.32 155.44 C 154.35 144.95 156.51 134.47 158.47 123.96 C 159.12 121.11 158.91 117.35 162.19 116.15 C 171.13 116.98 180.39 115.55 188.66 112.07 C 196.65 109.03 203.90 104.05 209.55 97.64 C 210.85 96.22 212.04 94.70 213.52 93.47 C 216.78 93.00 220.10 93.26 223.38 93.11 L 224.61 93.36 C 225.89 88.53 226.69 83.62 227.71 78.73 C 225.40 78.70 223.12 78.40 220.82 78.37 C 221.43 75.41 222.11 72.47 222.79 69.54 C 225.01 69.47 227.23 69.35 229.45 69.20 C 230.66 63.88 231.61 58.52 232.77 53.19 C 229.34 53.01 225.60 53.90 222.38 52.48 C 220.67 49.76 219.58 46.67 217.55 44.14 L 217.52 43.78 C 210.92 35.74 200.31 32.55 190.27 31.93 C 182.21 31.39 174.14 31.79 166.08 31.67 C 159.84 31.63 153.61 31.78 147.38 31.54 C 145.43 38.22 144.93 45.25 142.98 51.91 M 230.80 71.79 C 228.87 71.92 226.93 72.06 225.00 72.20 C 224.69 73.39 224.39 74.59 224.09 75.78 C 226.28 75.81 228.47 75.84 230.66 75.87 C 229.71 82.48 228.92 89.28 226.65 95.58 C 222.76 96.15 218.81 95.49 214.91 95.92 C 211.33 99.00 208.56 102.95 204.69 105.72 C 192.86 115.45 177.30 119.60 162.17 119.34 C 160.21 129.41 158.18 139.45 156.27 149.53 C 155.74 152.15 155.47 154.88 154.35 157.34 C 150.85 159.38 146.75 160.16 143.35 162.39 C 141.08 169.28 140.30 176.65 138.92 183.78 C 148.11 179.61 157.36 175.58 166.55 171.41 C 168.89 160.28 170.97 149.10 173.15 137.94 C 173.47 135.87 174.64 133.22 177.14 133.40 C 182.42 133.22 187.75 133.28 192.94 132.15 C 210.33 129.08 226.12 116.68 232.16 99.93 C 235.49 90.30 236.92 79.47 233.01 69.77 C 232.27 70.44 231.54 71.11 230.80 71.79 M 105.07 95.36 C 104.50 99.33 103.79 103.31 103.81 107.34 L 102.92 108.43 C 111.00 108.89 119.10 108.52 127.19 108.64 C 121.80 118.96 116.32 129.22 111.22 139.68 L 111.22 140.00 C 106.07 149.06 101.64 158.49 96.80 167.71 C 95.63 172.18 95.66 176.93 95.08 181.51 C 107.69 181.55 120.30 181.50 132.91 181.53 C 133.31 177.08 133.93 172.66 134.49 168.23 C 128.67 167.00 123.98 170.97 118.76 172.65 C 116.80 171.91 117.42 169.71 117.35 168.14 C 115.20 168.14 113.06 168.14 110.92 168.12 C 113.16 164.14 115.30 160.10 117.31 156.00 L 117.23 155.93 C 119.30 151.76 122.25 147.82 122.74 143.06 C 124.72 130.38 128.10 117.93 129.79 105.21 L 130.14 104.82 C 130.96 101.84 131.31 98.76 131.78 95.72 C 122.88 95.69 113.98 95.16 105.07 95.36 Z" />
</g>
<g id="#ff6d0aff">
<path fill="#ff6d0a" opacity="1.00" d=" M 142.98 51.91 C 144.93 45.25 145.43 38.22 147.38 31.54 C 153.61 31.78 159.84 31.63 166.08 31.67 C 166.48 34.62 167.06 37.55 167.24 40.53 C 167.38 45.44 166.07 50.31 166.58 55.22 C 166.94 59.06 167.13 62.91 166.90 66.75 C 166.08 79.52 166.47 92.32 167.04 105.09 C 167.18 107.93 166.71 110.74 166.58 113.57 C 165.12 114.43 163.64 115.27 162.19 116.15 C 158.91 117.35 159.12 121.11 158.47 123.96 C 156.51 134.47 154.35 144.95 152.32 155.44 C 148.90 157.07 145.38 158.47 141.87 159.88 C 142.68 155.29 142.46 150.61 142.95 145.99 C 143.43 141.64 142.45 137.30 142.98 132.96 C 143.72 126.34 143.60 119.64 142.94 113.02 C 142.26 107.30 143.14 101.54 142.72 95.81 C 142.47 92.43 142.58 89.04 143.00 85.69 C 143.63 81.17 142.39 76.67 142.73 72.14 C 143.43 66.57 143.08 60.92 142.64 55.34 C 141.55 55.17 140.46 55.00 139.37 54.83 C 140.22 54.24 141.07 53.66 141.91 53.05 C 142.18 52.76 142.71 52.20 142.98 51.91 Z" />
</g>
<g id="#ff7a17ff">
<path fill="#ff7a17" opacity="1.00" d=" M 166.08 31.67 C 174.14 31.79 182.21 31.39 190.27 31.93 C 189.59 32.50 188.91 33.09 188.23 33.67 C 189.67 34.05 191.12 34.44 192.57 34.83 C 192.50 45.22 191.79 55.61 191.98 66.01 C 192.41 79.28 192.10 92.57 192.59 105.83 C 192.56 108.46 190.27 110.26 188.66 112.07 C 180.39 115.55 171.13 116.98 162.19 116.15 C 163.64 115.27 165.12 114.43 166.58 113.57 C 166.71 110.74 167.18 107.93 167.04 105.09 C 166.47 92.32 166.08 79.52 166.90 66.75 C 167.13 62.91 166.94 59.06 166.58 55.22 C 166.07 50.31 167.38 45.44 167.24 40.53 C 167.06 37.55 166.48 34.62 166.08 31.67 Z" />
</g>
<g id="#ff8927ff">
<path fill="#ff8927" opacity="1.00" d=" M 190.27 31.93 C 200.31 32.55 210.92 35.74 217.52 43.78 L 217.55 44.14 C 217.31 47.89 219.71 51.03 220.31 54.61 C 220.79 61.52 220.87 68.52 219.37 75.32 C 219.41 80.74 223.04 87.95 217.46 91.82 C 219.42 92.29 221.40 92.72 223.38 93.11 C 220.10 93.26 216.78 93.00 213.52 93.47 C 212.04 94.70 210.85 96.22 209.55 97.64 C 203.90 104.05 196.65 109.03 188.66 112.07 C 190.27 110.26 192.56 108.46 192.59 105.83 C 192.10 92.57 192.41 79.28 191.98 66.01 C 191.79 55.61 192.50 45.22 192.57 34.83 C 191.12 34.44 189.67 34.05 188.23 33.67 C 188.91 33.09 189.59 32.50 190.27 31.93 Z" />
</g>
<g id="#ffffffff">
<path fill="#ffffff" opacity="1.00" d=" M 44.78 34.55 C 65.80 34.52 86.82 34.57 107.84 34.53 C 107.59 41.43 106.23 48.23 105.76 55.12 C 105.83 57.18 103.39 56.84 102.03 56.89 C 89.58 56.85 77.12 56.87 64.67 56.86 C 63.25 70.13 61.49 83.36 60.10 96.63 C 69.95 96.65 79.80 96.65 89.66 96.63 C 89.51 98.32 89.39 100.01 89.24 101.70 C 86.30 103.78 83.47 106.02 80.70 108.31 C 82.49 109.11 84.27 109.94 86.04 110.81 C 86.90 109.43 87.77 108.07 88.58 106.67 C 87.89 110.82 87.52 115.00 87.38 119.20 C 77.39 119.22 67.40 119.25 57.42 119.18 C 56.10 132.53 54.02 145.80 53.08 159.18 C 66.54 159.16 79.99 159.17 93.44 159.19 C 92.78 166.69 91.91 174.17 90.82 181.61 C 69.76 181.59 48.69 181.63 27.62 181.60 C 30.26 161.15 32.17 140.63 34.75 120.18 C 35.27 115.79 35.76 111.41 35.85 106.99 C 39.44 84.98 41.13 62.68 44.04 40.57 C 44.30 38.56 44.55 36.56 44.78 34.55 Z" />
</g>
<g id="#672500ff">
<path fill="#672500" opacity="1.00" d=" M 42.02 38.70 C 42.53 39.17 43.54 40.10 44.04 40.57 C 41.13 62.68 39.44 84.98 35.85 106.99 C 35.76 111.41 35.27 115.79 34.75 120.18 C 32.17 140.63 30.26 161.15 27.62 181.60 C 26.74 182.41 25.86 183.23 24.98 184.05 C 25.12 180.52 25.36 177.00 25.79 173.50 C 31.30 128.58 36.45 83.61 42.02 38.70 Z" />
</g>
<g id="#ff9836ff">
<path fill="#ff9836" opacity="1.00" d=" M 220.31 54.61 C 219.71 51.03 217.31 47.89 217.55 44.14 C 219.58 46.67 220.67 49.76 222.38 52.48 C 225.60 53.90 229.34 53.01 232.77 53.19 C 231.61 58.52 230.66 63.88 229.45 69.20 C 227.23 69.35 225.01 69.47 222.79 69.54 C 222.11 72.47 221.43 75.41 220.82 78.37 C 223.12 78.40 225.40 78.70 227.71 78.73 C 226.69 83.62 225.89 88.53 224.61 93.36 L 223.38 93.11 C 221.40 92.72 219.42 92.29 217.46 91.82 C 223.04 87.95 219.41 80.74 219.37 75.32 C 220.87 68.52 220.79 61.52 220.31 54.61 Z" />
</g>
<g id="#ff6602ff">
<path fill="#ff6602" opacity="1.00" d=" M 132.52 53.24 C 135.65 53.24 138.78 53.23 141.91 53.05 C 141.07 53.66 140.22 54.24 139.37 54.83 C 140.46 55.00 141.55 55.17 142.64 55.34 C 143.08 60.92 143.43 66.57 142.73 72.14 C 142.39 76.67 143.63 81.17 143.00 85.69 C 142.58 89.04 142.47 92.43 142.72 95.81 C 143.14 101.54 142.26 107.30 142.94 113.02 C 143.60 119.64 143.72 126.34 142.98 132.96 C 142.45 137.30 143.43 141.64 142.95 145.99 C 142.46 150.61 142.68 155.29 141.87 159.88 L 141.83 160.12 C 134.56 163.06 127.43 166.33 120.22 169.43 C 124.88 144.03 130.35 118.78 134.87 93.36 C 131.57 93.24 128.26 93.21 124.95 93.22 C 125.55 88.30 126.57 83.45 127.65 78.62 C 130.99 78.65 134.32 78.65 137.66 78.59 C 138.46 75.60 139.25 72.60 139.68 69.53 C 136.25 69.35 132.82 69.13 129.38 69.31 C 130.46 63.96 131.47 58.60 132.52 53.24 Z" />
</g>
<g id="#f74600ff">
<path fill="#f74600" opacity="1.00" d=" M 230.80 71.79 C 231.54 71.11 232.27 70.44 233.01 69.77 C 236.92 79.47 235.49 90.30 232.16 99.93 C 226.12 116.68 210.33 129.08 192.94 132.15 C 187.75 133.28 182.42 133.22 177.14 133.40 C 174.64 133.22 173.47 135.87 173.15 137.94 C 170.97 149.10 168.89 160.28 166.55 171.41 C 157.36 175.58 148.11 179.61 138.92 183.78 C 140.30 176.65 141.08 169.28 143.35 162.39 C 146.75 160.16 150.85 159.38 154.35 157.34 C 155.47 154.88 155.74 152.15 156.27 149.53 C 158.18 139.45 160.21 129.41 162.17 119.34 C 177.30 119.60 192.86 115.45 204.69 105.72 C 208.56 102.95 211.33 99.00 214.91 95.92 C 218.81 95.49 222.76 96.15 226.65 95.58 C 228.92 89.28 229.71 82.48 230.66 75.87 C 228.47 75.84 226.28 75.81 224.09 75.78 C 224.39 74.59 224.69 73.39 225.00 72.20 C 226.93 72.06 228.87 71.92 230.80 71.79 Z" />
</g>
<g id="#eb6f20ff">
<path fill="#eb6f20" opacity="1.00" d=" M 667.75 79.50 C 669.75 79.50 671.75 79.51 673.76 79.52 C 673.72 94.36 673.79 109.20 673.72 124.04 C 673.78 125.72 673.45 127.91 675.27 128.83 C 677.99 129.18 680.75 128.97 683.50 129.00 C 683.49 131.00 683.49 133.00 683.50 135.00 C 679.51 134.79 675.01 135.86 671.49 133.44 C 668.73 131.64 667.56 128.24 667.74 125.06 C 667.76 109.87 667.75 94.68 667.75 79.50 Z" />
</g>
<g id="#cc5f19ff">
<path fill="#cc5f19" opacity="1.00" d=" M 289.00 83.00 C 304.75 83.00 320.50 83.00 336.25 83.00 C 336.25 84.92 336.25 86.84 336.25 88.75 C 322.41 88.74 308.58 88.75 294.75 88.75 C 294.74 94.50 294.74 100.25 294.75 106.00 C 305.83 106.00 316.91 106.00 328.00 106.00 C 328.00 108.00 328.00 110.00 328.00 112.00 C 316.92 112.00 305.83 112.00 294.75 112.00 C 294.75 117.75 294.74 123.50 294.75 129.25 C 308.58 129.25 322.41 129.26 336.24 129.25 C 336.24 131.16 336.25 133.08 336.25 135.00 C 320.50 135.00 304.75 135.00 289.00 135.00 C 289.00 117.67 289.00 100.33 289.00 83.00 Z" />
</g>
<g id="#d0611aff">
<path fill="#d0611a" opacity="1.00" d=" M 352.25 83.01 C 369.50 82.99 386.75 83.00 404.00 83.00 C 404.00 85.65 404.00 88.29 404.00 90.94 C 388.99 103.74 373.85 116.38 358.87 129.22 C 373.91 129.29 388.95 129.24 404.00 129.24 C 404.00 131.16 404.00 133.08 404.00 135.00 C 386.75 134.99 369.50 135.01 352.25 134.99 C 352.25 132.36 352.25 129.73 352.23 127.10 C 367.18 114.21 382.34 101.58 397.37 88.78 C 382.33 88.71 367.29 88.76 352.26 88.75 C 352.25 86.83 352.25 84.92 352.25 83.01 Z" />
</g>
<g id="#d5641bff">
<path fill="#d5641b" opacity="1.00" d=" M 420.25 83.25 C 434.52 83.27 448.79 83.23 463.05 83.25 C 467.78 82.96 472.25 87.20 471.98 91.98 C 472.03 96.99 472.05 102.00 471.97 107.01 C 471.99 110.10 470.30 113.15 467.56 114.62 C 464.97 116.11 461.87 115.69 459.02 115.77 C 448.01 115.61 437.00 116.00 426.00 115.55 C 426.00 122.03 425.99 128.52 426.00 135.00 C 424.08 135.00 422.16 134.99 420.25 134.99 C 420.26 117.74 420.25 100.50 420.25 83.25 M 427.34 89.45 C 425.70 90.38 426.03 92.46 425.97 94.03 C 426.04 98.41 425.87 102.80 426.07 107.18 C 425.93 108.76 427.57 109.89 429.04 109.71 C 440.03 109.82 451.03 109.71 462.03 109.76 C 463.49 109.76 465.75 109.78 466.07 107.89 C 466.46 102.58 466.23 97.23 466.21 91.90 C 466.35 90.13 464.76 88.84 463.07 89.04 C 452.70 88.91 442.33 89.08 431.97 88.97 C 430.43 89.10 428.74 88.71 427.34 89.45 Z" />
</g>
<g id="#e76d1fff">
<path fill="#e76d1f" opacity="1.00" d=" M 602.53 83.23 C 617.02 83.32 631.51 83.18 645.99 83.28 C 650.12 83.32 653.99 86.89 654.17 91.05 C 654.39 95.01 654.18 98.98 654.27 102.95 C 654.20 105.92 654.59 109.21 652.82 111.81 C 651.00 114.79 647.34 115.99 643.99 115.77 C 632.08 115.62 620.16 115.99 608.26 115.54 C 608.24 122.03 608.25 128.51 608.25 135.00 C 606.33 134.99 604.41 134.99 602.51 135.00 C 602.52 117.74 602.47 100.48 602.53 83.23 M 610.01 89.17 C 607.70 90.17 608.32 93.01 608.22 95.01 C 608.35 99.31 608.00 103.62 608.42 107.90 C 608.86 109.97 611.34 109.71 612.96 109.77 C 623.66 109.71 634.36 109.80 645.07 109.73 C 646.49 109.85 648.30 109.25 648.39 107.57 C 648.64 102.41 648.51 97.23 648.47 92.07 C 648.62 90.20 646.91 88.65 645.06 89.03 C 633.38 89.07 621.68 88.79 610.01 89.17 Z" />
</g>
<g id="#dc671cff">
<path fill="#dc671c" opacity="1.00" d=" M 485.75 93.00 C 496.84 93.02 507.94 92.98 519.03 93.00 C 523.95 92.66 528.51 97.03 528.23 101.99 C 528.30 112.99 528.22 124.00 528.25 135.00 C 517.13 134.98 506.01 135.02 494.90 134.99 C 490.39 135.25 486.02 131.55 485.84 126.98 C 485.58 121.66 485.83 116.33 485.75 111.01 C 497.91 111.00 510.07 111.00 522.24 111.00 C 521.66 107.18 523.74 102.10 520.72 99.17 C 509.08 98.75 497.40 99.12 485.75 98.99 C 485.75 97.00 485.75 95.00 485.75 93.00 M 491.76 117.00 C 491.78 120.32 491.55 123.65 491.88 126.97 C 492.00 128.45 493.65 129.17 494.98 128.99 C 504.07 129.05 513.16 128.97 522.25 129.00 C 522.25 125.00 522.25 121.00 522.25 117.00 C 512.09 117.00 501.92 116.99 491.76 117.00 Z" />
</g>
<g id="#ef7120ff">
<path fill="#ef7120" opacity="1.00" d=" M 698.25 93.26 C 700.24 93.25 702.23 93.25 704.23 93.24 C 704.30 104.18 704.18 115.12 704.28 126.05 C 704.16 127.26 705.17 128.11 705.72 129.08 C 714.81 128.80 723.91 129.24 733.00 128.87 C 734.85 128.70 735.09 126.53 735.01 125.06 C 735.00 114.46 734.99 103.85 735.00 93.25 C 736.99 93.25 738.99 93.25 741.00 93.25 C 740.97 104.17 741.05 115.09 740.98 126.02 C 741.22 130.85 736.85 135.27 732.00 134.99 C 723.64 135.01 715.29 135.04 706.93 134.97 C 702.21 135.10 698.06 130.77 698.28 126.07 C 698.21 115.13 698.28 104.20 698.25 93.26 Z" />
</g>
<g id="#f37321ff">
<path fill="#f37321" opacity="1.00" d=" M 758.64 96.60 C 760.52 94.01 763.86 93.06 766.94 93.24 C 775.20 93.35 783.47 93.06 791.73 93.38 C 796.31 93.81 799.14 98.17 799.55 102.45 C 797.60 102.49 795.67 102.50 793.74 102.52 C 792.89 101.02 792.18 98.81 790.01 99.28 C 781.45 99.31 772.88 99.04 764.34 99.41 C 761.41 101.76 762.92 106.42 763.05 109.69 C 763.35 109.97 763.94 110.53 764.23 110.82 C 773.19 111.34 782.20 110.72 791.18 111.09 C 795.28 111.34 798.98 114.89 799.17 119.05 C 799.34 122.03 799.42 125.06 799.03 128.03 C 798.32 132.18 794.21 135.22 790.06 134.99 C 781.68 134.98 773.30 135.09 764.93 134.93 C 760.08 134.84 756.80 130.31 756.47 125.78 C 758.38 125.75 760.30 125.75 762.23 125.75 C 763.13 126.78 763.30 128.99 765.03 128.93 C 773.71 129.05 782.41 129.08 791.09 128.91 C 793.82 128.53 793.17 125.02 793.31 123.03 C 793.19 121.02 793.82 117.55 791.05 117.14 C 782.35 116.73 773.62 117.23 764.91 116.93 C 760.37 116.71 756.53 112.48 756.76 107.94 C 756.80 104.15 756.05 99.77 758.64 96.60 Z" />
</g>
<g id="#e26a1dff">
<path fill="#e26a1d" opacity="1.00" d=" M 543.51 93.51 C 545.50 93.50 547.49 93.50 549.49 93.50 C 549.52 104.31 549.46 115.11 549.51 125.91 C 549.31 127.35 550.41 129.06 551.99 128.94 C 560.33 129.07 568.69 129.02 577.03 128.96 C 578.74 129.22 580.22 127.73 579.96 126.03 C 580.07 115.19 579.96 104.34 580.00 93.50 C 581.99 93.50 583.99 93.50 586.00 93.50 C 585.95 110.07 586.09 126.64 585.94 143.21 C 585.87 147.84 581.54 151.76 576.93 151.48 C 568.37 151.55 559.82 151.45 551.26 151.51 C 551.27 149.50 551.27 147.49 551.27 145.49 C 559.50 145.51 567.74 145.51 575.97 145.51 C 577.31 145.48 579.27 145.42 579.77 143.88 C 580.22 140.94 579.96 137.96 579.99 135.00 C 570.65 134.96 561.31 135.08 551.97 134.96 C 547.29 134.97 543.26 130.63 543.52 125.98 C 543.46 115.15 543.53 104.33 543.51 93.51 Z" />
</g>
<g id="#dadadaff">
<path fill="#dadada" opacity="1.00" d=" M 105.07 95.36 C 113.98 95.16 122.88 95.69 131.78 95.72 C 131.31 98.76 130.96 101.84 130.14 104.82 L 129.79 105.21 C 129.61 105.40 129.25 105.78 129.07 105.97 C 128.45 106.43 127.83 106.88 127.20 107.32 C 119.40 107.25 111.59 106.86 103.81 107.34 C 103.79 103.31 104.50 99.33 105.07 95.36 Z" />
<path fill="#dadada" opacity="1.00" d=" M 80.70 108.31 C 83.47 106.02 86.30 103.78 89.24 101.70 C 89.06 103.36 88.85 105.02 88.58 106.67 C 87.77 108.07 86.90 109.43 86.04 110.81 C 84.27 109.94 82.49 109.11 80.70 108.31 Z" />
</g>
<g id="#ecededff">
<path fill="#eceded" opacity="1.00" d=" M 127.20 107.32 C 127.83 106.88 128.45 106.43 129.07 105.97 C 129.25 105.78 129.61 105.40 129.79 105.21 C 128.10 117.93 124.72 130.38 122.74 143.06 C 122.25 147.82 119.30 151.76 117.23 155.93 C 114.29 153.51 111.66 150.73 109.46 147.63 C 110.63 145.24 111.61 142.71 111.22 140.00 L 111.22 139.68 C 116.32 129.22 121.80 118.96 127.19 108.64 C 119.10 108.52 111.00 108.89 102.92 108.43 L 103.81 107.34 C 111.59 106.86 119.40 107.25 127.20 107.32 Z" />
</g>
<g id="#f7f7f7ff">
<path fill="#f7f7f7" opacity="1.00" d=" M 96.80 167.71 C 101.64 158.49 106.07 149.06 111.22 140.00 C 111.61 142.71 110.63 145.24 109.46 147.63 C 111.66 150.73 114.29 153.51 117.23 155.93 L 117.31 156.00 C 115.30 160.10 113.16 164.14 110.92 168.12 C 113.06 168.14 115.20 168.14 117.35 168.14 C 117.42 169.71 116.80 171.91 118.76 172.65 C 123.98 170.97 128.67 167.00 134.49 168.23 C 133.93 172.66 133.31 177.08 132.91 181.53 C 120.30 181.50 107.69 181.55 95.08 181.51 C 95.66 176.93 95.63 172.18 96.80 167.71 Z" />
</g>
</svg>
